inDegrees=no
num_controls=7
num_derivatives=13
num_iterations=128
num_multipliers=7
num_parameters=0
num_slacks=7
num_states=26
objective=0.444460
objective_accelerations=0.058225
objective_balance=0.003692
objective_effort=0.023641
objective_height=0.353408
objective_ligament=0.005494
solver_duration=1699.300673
status=Solve_Succeeded
success=true
DataType=double
version=3
OpenSimVersion=4.5
endheader
time	/jointset/ground_pelvis/pelvis_tilt/value	/jointset/ground_pelvis/pelvis_tx/value	/jointset/ground_pelvis/pelvis_ty/value	/jointset/hip_l/hip_flexion_l/value	/jointset/hip_l/hip_adduction_l/value	/jointset/hip_l/hip_rotation_l/value	/jointset/back/lumbar_extension/value	/jointset/patellofemoral_l/patellar_flexion_l/value	/jointset/knee_l/knee_flexion_l/value	/jointset/knee_l/knee_adduction_l/value	/jointset/knee_l/knee_rotation_l/value	/jointset/ankle_l/ankle_angle_l/value	/jointset/subtalar_l/subtalar_angle_l/value	/jointset/ground_pelvis/pelvis_tilt/speed	/jointset/ground_pelvis/pelvis_tx/speed	/jointset/ground_pelvis/pelvis_ty/speed	/jointset/hip_l/hip_flexion_l/speed	/jointset/hip_l/hip_adduction_l/speed	/jointset/hip_l/hip_rotation_l/speed	/jointset/back/lumbar_extension/speed	/jointset/patellofemoral_l/patellar_flexion_l/speed	/jointset/knee_l/knee_flexion_l/speed	/jointset/knee_l/knee_adduction_l/speed	/jointset/knee_l/knee_rotation_l/speed	/jointset/ankle_l/ankle_angle_l/speed	/jointset/subtalar_l/subtalar_angle_l/speed	/forceset/tau_hip_flexion_l	/forceset/tau_hip_adduction_l	/forceset/tau_hip_rotation_l	/forceset/tau_knee_flexion_l	/forceset/tau_ankle_angle_l	/forceset/tau_subtalar_angle_l	/forceset/tau_lumbar_extension	lambda_cid13_p0	lambda_cid13_p1	lambda_cid13_p2	lambda_cid13_p3	lambda_cid13_p4	lambda_cid13_p5	lambda_cid14_p0	/jointset/ground_pelvis/pelvis_tilt/accel	/jointset/ground_pelvis/pelvis_tx/accel	/jointset/ground_pelvis/pelvis_ty/accel	/jointset/hip_l/hip_flexion_l/accel	/jointset/hip_l/hip_adduction_l/accel	/jointset/hip_l/hip_rotation_l/accel	/jointset/back/lumbar_extension/accel	/jointset/patellofemoral_l/patellar_flexion_l/accel	/jointset/knee_l/knee_flexion_l/accel	/jointset/knee_l/knee_adduction_l/accel	/jointset/knee_l/knee_rotation_l/accel	/jointset/ankle_l/ankle_angle_l/accel	/jointset/subtalar_l/subtalar_angle_l/accel	gamma_cid13_p0	gamma_cid13_p1	gamma_cid13_p2	gamma_cid13_p3	gamma_cid13_p4	gamma_cid13_p5	gamma_cid14_p0
0.5	-0.3553962724579349	-0.04539711370960935	0.7559662905244766	1.127981303021447	-0.4371129624403618	-0.2215674490410867	-0.2547935673016394	0.8102288080301044	0.8102288080299193	-0.1280307381144929	-0.1601401953126969	0.09731325268870035	-0.03861886281126048	-0.8057791372191333	-0.2304509425044454	-0.5464551108050769	2.550018528655023	-0.2038136252462282	0.7580093244375509	-0.1129029619883264	1.995595959194907	1.995595959194977	0.1275258889847099	-0.08235912185490747	0.425208808477924	-0.01767577335968697	-0.1765599099891894	0.01881926019340155	-0.01108225637383647	-0.215818089769222	0.07126953796712097	0.04601507016503154	0.1722492285336421	-9.913597620730462	-21.3302147381474	6.58470943835428	-6.992990754711667	-522.0924880690241	-62.88932346803435	-25.03629199200491	0.8498604448421289	0.6378539197558935	-0.4624844993792579	-1.422980731182677	0.7645490654671413	-0.2116899026239546	1.106345641894141	-1.287745475084934	-1.287745475085109	0.08280686772840766	0.180060994358075	-0.5095493394307917	0.5638218791185894	-5.574629972481824e-07	-4.607598416965433e-07	2.714872377598026e-06	1.370416878675618e-07	-6.234023657330293e-07	1.286384303843e-07	-4.604282874830579e-07
0.51	-0.3634096109927425	-0.04766944941410711	0.750479821232087	1.153405378444992	-0.43911403875891	-0.2139968418978151	-0.2558685432885887	0.8301173106835958	0.8301173106835663	-0.1267556200553374	-0.1609543714082367	0.1015386980261762	-0.03876933541400842	-0.7967716470407288	-0.2239960581717697	-0.5507209270220127	2.534446677413312	-0.19638723176485	0.7560112872043033	-0.1021375132744522	1.981838464614245	1.98183846461417	0.1274909524365612	-0.08046901220492191	0.4198097328862992	-0.01243000700059482	-0.1822297416128183	0.01936859807657034	-0.01115186875752879	-0.2185778586818106	0.07102973238980342	0.0464515351845283	0.1765620104677677	-10.19977003650512	-21.44789491686503	6.578603586925239	-6.959910533661658	-525.8278206314302	-62.57226356714023	-24.11547449281014	0.9436623475723069	0.6523565174611116	-0.3910793053498633	-1.676850274066444	0.7335457215634086	-0.2093764018659249	1.054852805171215	-1.45957587034792	-1.459575870369586	-0.04762418858028871	0.1951060258793924	-0.5656602689833471	0.5030099941111074	-5.449570208823874e-07	-3.685429843488204e-07	2.755939689381202e-06	1.577276734917336e-07	-5.991198531711537e-07	2.001622410815726e-07	-4.537749671138065e-07
0.52	-0.3713293808171201	-0.04987662610979055	0.7449542039530281	1.178663222765439	-0.4410404788962267	-0.2064493182805141	-0.2568372231245918	0.849860273507122	0.8498602735072471	-0.1254810474161615	-0.1617493223921657	0.1057080378877446	-0.03886773915720414	-0.7870653951330159	-0.217419140741584	-0.5542847081389225	2.516772308035557	-0.1888863889998608	0.7533926192434236	-0.0916437317990922	1.966487993201938	1.966487993201719	0.1274168049886605	-0.07851409953251225	0.4139877132964737	-0.007262001449239005	-0.1878995732364469	0.01991793595973827	-0.01122148114120728	-0.221337627594401	0.07078992681248494	0.04688800020402347	0.1808747924018945	-10.48967518329781	-21.56596066915548	6.57374790755846	-6.958792020572303	-529.6477396661024	-62.31517189061285	-23.19607695504672	0.9896127907038088	0.6622605392578953	-0.3220774793740564	-1.843484358391474	0.7794389221893367	-0.3358160481504473	1.052012194191287	-1.606340841414043	-1.606340841414085	0.0749646877779898	0.1930215988428994	-0.5941381390708961	0.5482697175713339	-5.292859541960673e-07	-2.902119742589871e-07	2.769054155463785e-06	1.754229509067693e-07	-5.74913695977019e-07	2.702437864778175e-07	-4.451115379812424e-07
0.53	-0.3791487616270878	-0.05201752580043403	0.7393964738379631	1.203734168639227	-0.4428915218997854	-0.1989308838949488	-0.2577024155789683	0.8694419640113008	0.8694419640113854	-0.1242073698558489	-0.1625243150129616	0.1098171107146827	-0.03891480391750887	-0.7766981986211079	-0.21074987375998	-0.5571406282347178	2.497079094215587	-0.1813136229833053	0.7501864311026385	-0.08146184711682534	1.94959628884243	1.949596288842272	0.1273178248816432	-0.07648316007894909	0.407759349608616	-0.002167031265835702	-0.1934493796439629	0.0203506325039967	-0.01123342326878088	-0.2240764042559938	0.07046677702091803	0.04713789446085773	0.1850362345507593	-10.80832421046081	-21.59211436469817	6.547553311157025	-6.824212161661663	-533.3980847032027	-61.93355280326128	-22.2797260091928	1.077088934152361	0.6709352652249821	-0.2493587186371932	-2.082986425599096	0.7471594054399221	-0.329567052509327	0.9912133991255505	-1.768569939733823	-1.768569939724667	-0.0524120015438268	0.2088821149058532	-0.6472960308198316	0.4874146384103576	-5.124394762330758e-07	-1.968742332675897e-07	2.791027283501964e-06	1.994830439772404e-07	-5.532623259023891e-07	3.403125704856618e-07	-4.341004635764015e-07
0.54	-0.3868611073013931	-0.05409139772373879	0.7338137826331492	1.228598033068454	-0.4446666444503685	-0.1914478207618843	-0.2584678018277459	0.8888471405305819	0.8888471405306262	-0.1229346986249274	-0.1632788478399625	0.1138618777953068	-0.03891145818204248	-0.7656583680004769	-0.2040135872738428	-0.5592769260887188	2.475356019123643	-0.1737022984046988	0.746318368743181	-0.07168249067931215	1.931185196222333	1.931185196222236	0.1272155391105359	-0.07442214077367268	0.4011265640336941	0.002820097704989281	-0.1989991860514811	0.0207833290482547	-0.01124536539635902	-0.2268151809175869	0.07014362722935091	0.04738778871769152	0.1891976766996226	-11.13091857955926	-21.61832567692468	6.522224563081949	-6.71968192153201	-537.2365013192776	-61.61123881901327	-21.36976024071536	1.124139612448421	0.6756644401645573	-0.1781530310152193	-2.249456612786117	0.7871506345995364	-0.4681908918849769	0.9715065452405494	-1.91021849353192	-1.910218493531999	0.07430355495999551	0.1990375691855581	-0.6750225164836761	0.5267014750556832	-4.942925432405754e-07	-8.693330064041933e-08	2.822801484342081e-06	2.305850607515977e-07	-5.344375288110415e-07	4.103672355105949e-07	-4.204919944022331e-07
0.55	-0.3944599603593959	-0.05609763119619943	0.7282133404136928	1.253234893243453	-0.4463654137295054	-0.1840063056104346	-0.2591373655998392	0.9080607418983861	0.9080607418984357	-0.1216631750322771	-0.1640123096965262	0.1178384061790409	-0.03885867865857993	-0.7540115774417443	-0.1972267574329203	-0.560688492669294	2.451690984121974	-0.1660495095996662	0.7418823492780227	-0.06230776385564699	1.911292280208335	1.911292280208342	0.127082789344722	-0.07226612138014671	0.3941207429887429	0.007716900887847602	-0.2043183878158877	0.02095384173921189	-0.01120215296759887	-0.2297654471131848	0.07008225478091963	0.04747705631428378	0.1931469162986155	-11.37039125437106	-21.58571680306085	6.48338836247948	-6.606935889197831	-541.0072035957915	-61.21584498869063	-20.4707956926635	1.199979512173505	0.6811942338749187	-0.1043095354681165	-2.473862013670084	0.7542895420577996	-0.4470006114708407	0.9088307334584291	-2.065165111035219	-2.065165111019545	-0.05794576279705935	0.2250736367090307	-0.7220892166723557	0.4680062751792634	-4.720705138700388e-07	-6.06659079911753e-09	2.805493872977375e-06	2.501529113341205e-07	-5.104082491437259e-07	4.712532456071553e-07	-4.052106850596609e-07
0.5600000000000001	-0.4019393393648938	-0.05803579597468708	0.7226024523156527	1.277625336054473	-0.4479876658128716	-0.1766122892811648	-0.2597155071071899	0.9270681467149104	0.927068146714965	-0.1203931552413751	-0.1647239734566991	0.121743130888691	-0.03875756379623315	-0.7417635574994982	-0.1903998484792453	-0.5613661018054541	2.426072546327793	-0.1583988592505254	0.7368186043072804	-0.05339803773082488	1.88994588596628	1.88994588596639	0.1269147787611084	-0.07006252149570423	0.3867658292169316	0.01248716548184056	-0.2096375895802886	0.0211243544301676	-0.01115894053884045	-0.2327157133087832	0.07002088233248682	0.04756632391087357	0.1970961558976155	-11.61282070374408	-21.55312649149008	6.445169501614209	-6.52986694921589	-544.8540565240226	-60.87483340631387	-19.58508397816232	1.244385489151133	0.6836802627150963	-0.0313615421322326	-2.640137171288699	0.7867229434212052	-0.5937359930017636	0.8785064054719354	-2.200914139143206	-2.200914139143436	0.06725139140004659	0.2085536673688651	-0.7448410618556508	0.5013937572826239	-4.449583688458587e-07	3.991105169914303e-08	2.729288086966883e-06	2.558797624864426e-07	-4.801335903852492e-07	5.211368697896691e-07	-3.879219675150043e-07
0.5700000000000001	-0.4092933772447667	-0.05990562446123361	0.7169884453600364	1.301750196086118	-0.449533368602633	-0.1692719508829258	-0.2602069730810003	0.9458549851025816	0.9458549851025858	-0.1191248675525349	-0.1654133154600292	0.1255725685818092	-0.03860932301489008	-0.7289441690782322	-0.1835715574358144	-0.5613125403355861	2.398587840406581	-0.1507460346739141	0.7311530148717327	-0.04499599487853669	1.867189939373626	1.867189939373534	0.1267296837776245	-0.06779991885636265	0.3790606474016858	0.0171327179391695	-0.2148858527562255	0.02122457907029274	-0.01103355402540789	-0.2353966588279429	0.06945168050676113	0.04757726084123159	0.2009145025969567	-12.01236475824766	-21.45206309182694	6.388100155717439	-6.197859003091684	-548.5308197909072	-60.4873820661152	-18.71437119353878	1.315629675803363	0.6815990581859372	0.04203473718508269	-2.849453616288935	0.7535595103596797	-0.5676910516002623	0.805927547991746	-2.347637119985074	-2.34763712001533	-0.06327581139118484	0.2365520826303864	-0.792482772049257	0.4415701851226841	-4.138719540777654e-07	1.105341952422005e-07	2.66522373067008e-06	2.671438085882145e-07	-4.475037879776507e-07	5.684965023507308e-07	-3.666768709754347e-07
0.58	-0.416516238408989	-0.06170733093074007	0.7113786379682466	1.3255908457958	-0.4510027436875129	-0.1619912125055963	-0.2606174437617109	0.9644073235841943	0.9644073235841467	-0.1178588079871633	-0.1660797437328836	0.1293231292506367	-0.0384155398699408	-0.7155282143694058	-0.1767754450712327	-0.5605261890401741	2.369230481935308	-0.1431333182741587	0.7248986001254256	-0.03719897911086956	1.843045904754631	1.843045904754337	0.1264691540673971	-0.06547977540047792	0.3709904243588326	0.02159563820308487	-0.2201341159321679	0.02132480371041624	-0.01090816751196084	-0.2380776043471035	0.06888247868103542	0.04758819777158755	0.2047328492962931	-12.41451530543085	-21.3505364268211	6.330950796770406	-5.90006400596773	-552.2781841717178	-60.15074304110868	-17.86004949682153	1.363698746663181	0.6772445269452761	0.1151964229765585	-3.014667681301077	0.7787013080500426	-0.7115010551536151	0.7575009885477175	-2.47853174441126	-2.478531744411279	0.05216444605133419	0.2200618306775014	-0.8178493073770775	0.4648673185999194	-3.776097461548089e-07	2.132538052622007e-07	2.616971468884128e-06	2.856190853218275e-07	-4.118068217479407e-07	6.125690760559478e-07	-3.402792808610953e-07
0.59	-0.4236022898783036	-0.06344125338675467	0.7057803473442159	1.349128981528044	-0.4523960663046841	-0.1547756710503466	-0.2609528650641441	0.9827114564916265	0.9827114564915859	-0.1165956204586613	-0.1667224105127038	0.1329913664839255	-0.03817779714307051	-0.7015976960491241	-0.1700149664091259	-0.5590083898308033	2.33809611966153	-0.1355422672065067	0.7181186799287379	-0.02999481542919688	1.817560300557808	1.817560300557486	0.126147523788164	-0.06304703526279691	0.3626109819575331	0.02592421686616428	-0.2249614574977011	0.02114052533169567	-0.0107298152315011	-0.241209200722953	0.06900618780116566	0.04737174315208172	0.2082121383551852	-12.5924626034623	-21.18580362842186	6.259489416793573	-5.727905369236135	-555.9014123226473	-59.70451363928165	-17.02309695663918	1.420327855692626	0.674620782874484	0.1885253815120623	-3.207969363870432	0.7472831249769598	-0.6751539272750628	0.6854439499416565	-2.616566220619238	-2.6165662206235	-0.07735249916917637	0.2563848960903191	-0.8548515174633489	0.4122020645216136	-3.41708950523603e-07	2.752870885997005e-07	2.51720632468856e-06	2.905125287498645e-07	-3.74852261298773e-07	6.409102688179943e-07	-3.145506765660995e-07
